<svg xmlns="http://www.w3.org/2000/svg" width="128" height="128">
  <title>hayshin.dev-logo</title>
  <style>
    path { fill: #3c3836; }
    @media (prefers-color-scheme: dark) {
      path { fill: #EBDBB2; }
    }
  </style>
  <path d="M104 13h17v8h-3v7h-7v8h-7v7h-7v7h-7v8h-6v14h6v7h7v7h7v8h7v7h7v7h3v8h-18v-7h-6v-8h-7v-7h-6v-8h-7v-7h-7v-7h-7V57h7v-7h7v-8h6v-7h7v-7h7v-7h7z"/>
  <path d="M50 13h17v8h-3v7h-7v8h-7v7h-7v7h-7v8h-6v14h6v7h7v7h7v8h7v7h7v7h3v8H50v-8h-7v-7h-6v-7h-7v-8h-7v-7h-7v-7h-6V57h6v-7h7v-7h7v-8h6v-7h7v-7h7z"/>
</svg>
